HIERARCHY
ROOT pelvis
{
  OFFSET 0 100 0
  CHANNELS 6 Xposition Yposition Zposition Zrotation Xrotation Yrotation
  JOINT pelvis_right_femur
  {
    OFFSET -10.78128 -3.44521 -0.5502486
    CHANNELS 3 Zrotation Xrotation Yrotation
    JOINT right_femur_tibia
    {
      OFFSET -0.8047443 -44.0398 -0.1307829
      CHANNELS 3 Zrotation Xrotation Yrotation
      JOINT right_tibia_foot
      {
        OFFSET 3.006224 -47.83518 -5
        CHANNELS 3 Zrotation Xrotation Yrotation
        End Site
        {
          OFFSET 0 -5 15
        }
      }
    }
  }
  JOINT pelvis_left_femur
  {
    OFFSET 10.78128 -3.44521 -0.5502486
    CHANNELS 3 Zrotation Xrotation Yrotation
    JOINT left_femur_tibia
    {
      OFFSET 0.8047443 -44.0398 -0.1307829
      CHANNELS 3 Zrotation Xrotation Yrotation
      JOINT left_tibia_foot
      {
        OFFSET -4.370144 -48.10324 -4.275266
        CHANNELS 3 Zrotation Xrotation Yrotation
        End Site
        {
          OFFSET 0 -5 15
        }
      }
    }
  }
  JOINT pelvis_spine1
  {
    OFFSET 0 6.468898 -3.129235
    CHANNELS 3 Zrotation Xrotation Yrotation
    JOINT spine1
    {
      OFFSET 0 23.15396 4.99043
      CHANNELS 3 Zrotation Xrotation Yrotation
      JOINT spine2
      {
        OFFSET 0 20.79997 -5.064912
        CHANNELS 3 Zrotation Xrotation Yrotation
        JOINT neck
        {
          OFFSET 0 14.38658 9.616178
          CHANNELS 3 Zrotation Xrotation Yrotation
          End Site
          {
            OFFSET 0 20 0
          }
        }
      }
      JOINT right_manubrium
      {
        OFFSET -5.722621 16.35077 3.967754
        CHANNELS 3 Zrotation Xrotation Yrotation
        JOINT right_clavicle
        {
          OFFSET -13.16364 1.694482 -4.693211
          CHANNELS 3 Zrotation Xrotation Yrotation
          JOINT right_humerus
          {
            OFFSET -28.5034 -0.3100689 -2.792744
            CHANNELS 3 Zrotation Xrotation Yrotation
            JOINT right_radius
            {
              OFFSET -25.15693 0.02248979 -1.271978
              CHANNELS 3 Zrotation Xrotation Yrotation
              End Site
              {
                OFFSET -15 0 0
              }
            }
          }
        }
      }
      JOINT left_manubrium
      {
        OFFSET 5.722621 16.35077 3.967754
        CHANNELS 3 Zrotation Xrotation Yrotation
        JOINT left_clavicle
        {
          OFFSET 13.16364 1.694482 -4.693211
          CHANNELS 3 Zrotation Xrotation Yrotation
          JOINT left_humerus
          {
            OFFSET 29.39168 -1.063119 -2.237045
            CHANNELS 3 Zrotation Xrotation Yrotation
            JOINT left_radius
            {
              OFFSET 24.59957 -0.9528479 0.9047498
              CHANNELS 3 Zrotation Xrotation Yrotation
              End Site
              {
                OFFSET 15 -0 -0
              }
            }
          }
        }
      }
    }
  }
}
MOTION
Frames: 15
Frame Time: 0.0416666666667
0 103.5113 0 -0.1528306 -1.354804 0.08256466 5.266687 -17.37748 8.395052 -0 37.34011 -0 -7.019701 -15.55493 -3.335121 -6.439695 10.93164 -22.21862 -0 7.461427 -0 9.957488 -15.66615 27.25827 -2.829987 -3.166521 4.207854 2.688668 8.912294 -6.938841 2.410178 22.56462 5.42043 1.669787 -24.80342 10.28349 4.065395 -20.10107 10.71244 86.3757 31.40799 -16.7272 -0 0 16.25008 -6.06287 7.794068 3.486711 6.130223 -18.5487 -0.4317681 -94.08569 23.38505 21.42236 0 0 -10.70256 13.84625 17.49725 -2.582741
0.2988042 103.3767 2.391745 -0.1530214 -0.6370662 0.2043679 5.473739 -19.04763 8.441569 -0 35.92541 -0 -6.730247 -14.99875 -3.073162 -6.491833 11.04504 -21.9747 -0 7.569936 -0 10.05831 -16.15788 26.8726 -2.898736 -3.126448 4.281639 2.806835 8.97474 -7.155882 2.216679 22.23675 5.73845 1.937595 -25.13178 10.24247 4.45881 -19.92624 10.89129 86.27649 32.3505 -17.30982 -0 0 15.93601 -6.093973 7.957888 3.5829 6.250058 -18.90585 -0.4529807 -93.62897 23.29924 21.04479 0 0 -12.24999 13.7716 16.98205 -2.348975
0.5087106 102.8872 6.347138 -0.7560753 -2.991197 0.1161123 6.298514 -20.28496 3.152105 -0 25.06958 -0 -9.257976 -2.672901 -1.114116 -5.457293 11.11516 -15.60314 -0 15.22647 -0 10.16252 -14.91536 23.81969 -1.084831 -3.569881 4.125724 2.222521 12.52482 -7.50947 1.929076 21.85099 5.728666 2.05622 -25.07849 9.319097 0.436885 -21.64647 11.91085 91.79048 23.88703 -20.23193 -0 0 11.83536 -13.74193 9.237744 6.560009 6.852195 -23.83619 -3.611144 -90.51866 15.17604 18.5855 0 0 -18.07477 19.47608 16.33314 -9.063594
0.6436773 102.4697 10.9358 -0.9258647 -4.266922 -0.04939626 6.537691 -20.02438 1.115648 -0 20.97273 -0 -10.36967 1.658077 -0.5018577 -5.020182 11.0816 -13.10738 -0 19.23314 -0 9.769812 -14.27926 22.56885 -0.367284 -3.728011 4.063874 1.916469 13.82798 -7.571745 1.887937 21.87577 5.593819 2.025116 -24.72758 8.892985 -1.284304 -22.24012 12.18823 93.93205 20.2924 -21.1019 -0 0 10.25497 -16.7651 9.598249 7.653232 6.893823 -25.62518 -4.930145 -89.56277 12.49431 17.74092 0 0 -20.20486 20.9829 16.20549 -10.9268
0.6815998 102.1138 16.12203 -1.069162 -6.435986 -0.3686623 6.820467 -17.62548 -0.8199356 -0 18.10983 -0 -11.68572 5.176812 -0.2247171 -4.421513 10.47821 -10.65687 -0 24.54727 -0 9.054456 -12.88007 21.53105 0.4737272 -3.939878 4.043096 1.407007 15.17822 -7.399017 2.048875 22.21035 5.062781 1.709008 -23.83423 8.399986 -3.457055 -23.05382 12.28825 96.29581 15.7215 -21.30896 -0 0 9.140692 -19.86132 9.918755 8.633317 6.63954 -27.07174 -6.391654 -89.02817 10.11888 17.41962 0 0 -21.09259 22.05882 16.58896 -12.41429
0.6329927 101.9578 21.63054 -1.15953 -8.113892 -0.7804864 7.032981 -15.06558 -1.862923 -0 16.9206 -0 -12.52094 6.587857 -0.27525 -3.951555 9.640249 -9.24894 -0 28.50529 -0 8.331709 -11.67265 20.9413 1.010829 -4.036606 4.064879 1.004508 15.92745 -7.164171 2.238186 22.56941 4.558325 1.398146 -23.00749 8.065454 -4.901259 -23.58417 12.24526 97.74849 12.73882 -21.07425 -0 0 8.778819 -21.6381 10.10006 9.141503 6.311331 -27.66826 -7.308714 -88.91071 9.125672 17.51417 0 0 -21.00767 22.19044 17.1113 -12.76092
0.5005836 101.9643 27.30971 -1.252499 -9.827444 -1.297309 7.191987 -11.65288 -2.549336 -0 16.71876 -0 -13.23502 6.703188 -0.561605 -3.444781 8.296981 -8.301801 -0 31.94445 -0 7.46864 -10.31953 20.58823 1.438505 -4.030341 4.1021 0.592079 16.36772 -6.792641 2.502719 23.05605 3.94345 0.9996846 -22.06078 7.792858 -6.15693 -24.05386 12.07183 98.82987 10.23086 -20.35341 -0 0 8.953647 -22.83612 10.20885 9.457887 5.892593 -27.71269 -7.985226 -89.11097 8.885314 17.9783 0 0 -19.92144 21.76585 17.87296 -12.47937
0.295276 102.1217 33.03352 -1.358669 -11.2043 -1.893092 7.262024 -8.234738 -2.901312 -0 17.01534 -0 -13.73839 5.882947 -0.9415594 -2.974726 6.690516 -7.772299 -0 34.27848 -0 6.633831 -9.117798 20.41268 1.700408 -3.923249 4.148922 0.2578573 16.49686 -6.394781 2.757107 23.52709 3.37566 0.6238471 -21.21536 7.600817 -7.028828 -24.39275 11.8471 99.41063 8.592354 -19.41065 -0 0 9.484926 -23.45 10.27099 9.643567 5.501 -27.36378 -8.351782 -89.47712 9.200089 18.61631 0 0 -18.36483 20.98578 18.60636 -11.75976
0.02990475 102.3596 38.71966 -1.486888 -12.32089 -2.555888 7.231785 -4.711088 -3.045754 -0 17.5897 -0 -14.10274 4.361335 -1.367593 -2.512127 4.79316 -7.511975 -0 35.46993 -0 5.81843 -8.035949 20.38282 1.829658 -3.723852 4.192316 -0.01165229 16.37323 -5.966985 2.999881 23.99182 2.842886 0.2587219 -20.45126 7.467413 -7.619944 -24.65194 11.57678 99.57126 7.607828 -18.23241 -0 0 10.30874 -23.66949 10.29261 9.789017 5.149217 -26.70556 -8.4595 -89.98486 9.8872 19.39402 0 0 -16.37295 19.96713 19.28506 -10.75599
-0.2822566 102.6115 44.32547 -1.63972 -13.123 -3.268317 7.106796 -1.336956 -3.057902 -0 18.215 -0 -14.33978 2.455269 -1.765506 -2.078145 2.776465 -7.432114 -0 35.40446 -0 5.070175 -7.15526 20.47162 1.842402 -3.46179 4.21728 -0.2017561 16.04743 -5.549618 3.203922 24.4143 2.391115 -0.06633757 -19.82134 7.385916 -7.951389 -24.83846 11.28857 99.35552 7.212344 -16.92169 -0 0 11.29147 -23.62062 10.26942 9.946229 4.87352 -25.8632 -8.340726 -90.56618 10.76954 20.20573 0 0 -14.1845 18.86032 19.83164 -9.641883
-0.6280567 102.8048 49.83527 -1.820104 -13.64933 -4.017768 6.899265 1.893757 -3.004294 -0 18.83088 -0 -14.48382 0.3334995 -2.1012 -1.673865 0.7283047 -7.481301 -0 34.04227 -0 4.383392 -6.479892 20.67775 1.767214 -3.16044 4.206729 -0.3198804 15.55103 -5.145974 3.367684 24.80335 2.022783 -0.3539317 -19.32342 7.351521 -8.091408 -24.97686 10.98084 98.83032 7.254396 -15.48367 -0 0 12.37127 -23.40698 10.18043 10.14749 4.680898 -24.89195 -8.031564 -91.21227 11.75402 21.01755 0 0 -11.83322 17.74715 20.25782 -8.52505
-0.9967298 102.8804 55.25298 -2.029984 -13.93562 -4.794105 6.631574 4.938633 -2.942689 -0 19.4175 -0 -14.56941 -1.834681 -2.345066 -1.315712 -1.21844 -7.636657 -0 31.47051 -0 3.747708 -6.018399 20.99274 1.635307 -2.846573 4.144665 -0.3742742 14.91521 -4.760971 3.492175 25.17042 1.743456 -0.60186 -18.95957 7.364415 -8.105602 -25.07619 10.65283 98.08297 7.584348 -13.95428 -0 0 13.46585 -23.10642 9.996486 10.39754 4.57434 -23.84807 -7.574356 -91.91396 12.77451 21.78922 0 0 -9.372746 16.6989 20.59512 -7.496676
-1.380148 102.7947 60.59177 -2.270808 -14.03722 -5.591128 6.324736 7.816878 -2.919646 -0 20.01969 -0 -14.63809 -3.941647 -2.483493 -1.022655 -2.960754 -7.903629 -0 27.85354 -0 3.13837 -5.757784 21.41004 1.475445 -2.540749 4.01844 -0.3780816 14.16107 -4.38765 3.587681 25.53952 1.546323 -0.8143764 -18.72006 7.427854 -8.061316 -25.14095 10.29658 97.20558 8.052417 -12.35438 -0 0 14.51442 -22.76615 9.684499 10.68372 4.546535 -22.75954 -7.0087 -92.68406 13.80884 22.50911 0 0 -6.794525 15.75124 20.90364 -6.606291
-1.774147 102.5258 65.86835 -2.540557 -14.01457 -6.405403 5.998736 10.53225 -2.971337 -0 20.69844 -0 -14.73342 -5.885288 -2.512198 -0.8203993 -4.402154 -8.297109 -0 23.48882 -0 2.530354 -5.67811 21.91196 1.311012 -2.258683 3.822006 -0.3464386 13.31359 -4.017427 3.667781 25.93538 1.421898 -0.9929601 -18.59105 7.54438 -8.018241 -25.16371 9.908016 96.29966 8.523702 -10.72831 -0 0 15.44843 -22.41475 9.217302 10.97813 4.584019 -21.65339 -6.379513 -93.53194 14.85323 23.16733 0 0 -4.107533 14.92144 21.24612 -5.875314
-2.179036 102.0745 71.09872 -2.833307 -13.93185 -7.235465 5.66814 13.08067 -3.120031 -0 21.52434 -0 -14.89529 -7.569816 -2.436788 -0.7340223 -5.467682 -8.831946 -0 18.75382 -0 1.904797 -5.75349 22.47422 1.156488 -2.009566 3.556171 -0.2958314 12.40257 -3.64077 3.747714 26.37975 1.357676 -1.137138 -18.55309 7.713746 -8.023579 -25.12992 9.488177 95.46522 8.889216 -9.134242 -0 0 16.20182 -22.06783 8.580363 11.24676 4.668756 -20.55507 -5.733928 -94.45936 15.91463 23.75707 0 0 -1.338564 14.21082 21.6768 -5.299152
